<svg xmlns="http://www.w3.org/2000/svg" xmlns:xlink="http://www.w3.org/1999/xlink" width="500" zoomAndPan="magnify" viewBox="0 0 375 374.999991" height="500" preserveAspectRatio="xMidYMid meet" version="1.0"><defs><g/><clipPath id="71228432fd"><path d="M 126.132812 106 L 249 106 L 249 198.734375 L 126.132812 198.734375 Z M 126.132812 106 " clip-rule="nonzero"/></clipPath><clipPath id="86688d69f5"><path d="M 186 58.484375 L 194 58.484375 L 194 78 L 186 78 Z M 186 58.484375 " clip-rule="nonzero"/></clipPath></defs><rect x="-37.5" width="450" fill="#ffffff" y="-37.499999" height="449.999989" fill-opacity="1"/><rect x="-37.5" width="450" fill="#f6f3ee" y="-37.499999" height="449.999989" fill-opacity="1"/><g clip-path="url(#71228432fd)"><path fill="#4d2b08" d="M 185.167969 134.449219 C 187.410156 134.398438 189.613281 134.203125 191.816406 134.148438 C 193.167969 134.113281 196.730469 133.695312 198.117188 133.5 C 205.664062 132.441406 212.871094 130.796875 219.671875 127.398438 C 221.933594 126.265625 224.039062 124.933594 225.835938 123.132812 C 226.996094 121.972656 226.957031 121.851562 226.574219 121.074219 C 225.746094 119.40625 224.820312 118.4375 223.410156 117.285156 C 221.609375 115.816406 218.882812 114.457031 216.828125 113.441406 C 213.328125 111.71875 208.046875 110.160156 204.289062 109.414062 C 201.320312 108.820312 198.390625 108.484375 195.289062 108.160156 C 188.542969 107.449219 182.898438 107.308594 176.085938 107.6875 C 171.617188 108.195312 168.6875 108.792969 164.539062 109.894531 C 159.714844 111.167969 156.367188 112.308594 151.894531 114.402344 C 149.625 115.535156 145.191406 117.929688 143.476562 119.660156 C 142.605469 120.539062 142.175781 120.917969 142.175781 122.132812 C 142.175781 122.9375 144.71875 124.949219 145.367188 125.4375 C 146.539062 126.3125 148.105469 127.132812 149.429688 127.800781 L 151.667969 128.808594 C 155.953125 130.714844 162.078125 132.402344 166.71875 133.175781 C 173.539062 134.308594 178.148438 134.449219 185.167969 134.449219 Z M 141.644531 123.039062 C 141.96875 126.867188 142.21875 130.40625 143.050781 134.179688 C 143.421875 135.875 143.804688 137.53125 144.335938 139.164062 C 145.40625 142.445312 146.316406 145.167969 147.625 148.339844 C 147.925781 149.070312 148.273438 149.824219 148.597656 150.542969 C 149.550781 152.671875 150.628906 154.722656 151.746094 156.765625 C 152.125 157.457031 152.488281 158.054688 152.890625 158.71875 C 154.046875 160.636719 155.335938 162.527344 156.671875 164.304688 C 157.132812 164.921875 157.570312 165.492188 158.058594 166.089844 L 159.867188 168.210938 C 160.660156 169.203125 161.582031 170.140625 162.480469 171.039062 C 163.261719 171.820312 164.046875 172.597656 164.894531 173.308594 L 165.691406 174.023438 C 166.398438 174.652344 167.09375 175.300781 167.851562 175.867188 C 168.289062 176.195312 168.980469 176.316406 169.496094 176.488281 C 171.902344 177.289062 174.472656 177.90625 177.015625 178.339844 C 180.292969 178.894531 183.644531 179.191406 187.054688 179.027344 C 187.460938 179.007812 188.007812 178.9375 188.417969 178.917969 C 192.882812 178.707031 198.828125 177.539062 202.890625 175.824219 L 203.113281 175.746094 C 204.019531 175.378906 207.699219 171.777344 208.320312 170.976562 L 211.222656 167.683594 C 212.144531 166.523438 213.011719 165.347656 213.898438 164.164062 L 215.476562 161.886719 C 216.328125 160.664062 217.207031 159.082031 217.980469 157.734375 C 219.089844 155.792969 220.425781 153.15625 221.121094 151.289062 L 222.015625 149.085938 C 222.734375 147.234375 223.433594 145.394531 224.050781 143.488281 C 224.605469 141.648438 225.070312 139.832031 225.597656 138.007812 C 225.90625 136.9375 226.15625 135.8125 226.359375 134.699219 C 227.015625 131.148438 227.695312 126.273438 227.175781 122.753906 C 225.6875 124.882812 222.9375 127.019531 220.300781 128.328125 L 217.910156 129.488281 C 215.386719 130.757812 211.339844 131.992188 208.742188 132.636719 C 204.304688 133.734375 200 134.476562 195.464844 135.101562 C 193.214844 135.410156 188.648438 135.664062 186.503906 135.664062 C 181.765625 135.65625 178.507812 135.453125 173.753906 135.132812 C 166.96875 134.671875 158.007812 132.636719 151.75 129.9375 C 148.699219 128.539062 145.707031 127.207031 143.289062 124.796875 C 142.765625 124.273438 142.335938 123.753906 141.644531 123.039062 Z M 223.324219 151.976562 L 222.371094 152.839844 C 222.0625 153.082031 221.773438 153.414062 221.492188 153.695312 C 221.359375 153.828125 221.132812 154.027344 221.046875 154.160156 C 220.941406 154.324219 219.441406 157.464844 218.957031 158.265625 C 218.726562 158.644531 218.550781 158.992188 218.320312 159.367188 C 217.960938 159.96875 217.789062 160.09375 217.925781 160.59375 C 218.683594 163.398438 221.324219 164.585938 223.375 160.492188 C 223.582031 160.078125 223.710938 159.695312 223.863281 159.242188 C 223.992188 158.84375 224.25 158.253906 224.335938 157.890625 C 223.785156 158.203125 223.402344 158.625 222.917969 159.109375 C 222.605469 159.460938 222.300781 159.816406 221.984375 160.160156 C 221.816406 160.339844 221.820312 160.382812 221.660156 160.441406 C 221.957031 159.878906 222.089844 159.5 222.445312 158.960938 L 223.054688 158.054688 C 223.757812 157.125 223.949219 156.921875 225.035156 156.335938 C 226.324219 155.636719 227.671875 154.863281 229.074219 154.40625 L 235.488281 151.902344 C 236.472656 151.414062 237.429688 151.023438 238.429688 150.527344 C 240.273438 149.570312 242.234375 148.179688 243.628906 146.671875 L 244.316406 145.847656 C 245.15625 144.808594 245.152344 144.789062 245.84375 143.59375 C 247.046875 141.511719 247.078125 141.058594 247.605469 138.785156 C 248.324219 135.699219 247.832031 132.855469 246.46875 130.117188 C 246.273438 129.726562 246.164062 129.558594 245.949219 129.203125 C 244.457031 126.761719 241.933594 124.976562 239.140625 124.144531 C 236.632812 123.402344 233.9375 123.277344 231.414062 124.289062 C 230.699219 124.578125 228.816406 125.859375 228.347656 126.382812 C 228.355469 128.148438 227.988281 131.003906 227.851562 132.554688 L 227.402344 135.054688 L 228.871094 133.273438 C 229.71875 132.195312 230.796875 130.820312 231.765625 129.820312 L 233.296875 128.179688 C 233.230469 128.433594 233.253906 128.304688 233.105469 128.515625 L 231.574219 130.6875 C 230.667969 132.042969 230.695312 131.9375 229.800781 133.144531 C 229.484375 133.566406 229.199219 133.910156 228.871094 134.332031 C 228.5625 134.726562 227.125 136.308594 227.027344 136.71875 L 226.648438 138.378906 C 227.035156 138.960938 227.796875 139.417969 228.839844 139.363281 C 229.359375 139.335938 229.671875 139.140625 229.976562 138.910156 C 230.304688 138.65625 230.464844 138.390625 230.65625 138.003906 C 231.429688 136.421875 230.714844 131.308594 235.492188 130.296875 C 236.625 130.058594 237.324219 130.304688 238.109375 130.695312 C 238.484375 130.882812 239.675781 131.742188 239.871094 132.03125 C 239.570312 131.953125 239.011719 131.417969 238.207031 131.351562 C 238.476562 131.585938 239.210938 132.0625 239.339844 132.257812 C 239.097656 132.195312 238.773438 131.894531 238.132812 131.878906 C 238.222656 132.003906 238.554688 132.265625 238.71875 132.429688 C 238.929688 132.644531 239.125 132.726562 239.265625 132.9375 C 238.949219 132.855469 239.007812 132.6875 237.980469 132.410156 C 237.546875 132.289062 237.09375 132.042969 236.621094 132.03125 C 236.855469 132.351562 237.1875 132.390625 237.875 133.421875 C 238.234375 133.957031 238.464844 134.527344 238.671875 135.195312 C 239.066406 136.46875 239.140625 138.292969 238.78125 139.710938 C 237.484375 144.878906 231.3125 146.386719 227.207031 148.835938 C 225.191406 150.039062 225.097656 150.042969 223.269531 151.394531 C 222.496094 151.964844 221.621094 152.617188 221.433594 153.414062 C 221.726562 153.21875 222.046875 152.867188 222.339844 152.65625 C 222.53125 152.519531 222.621094 152.46875 222.816406 152.304688 C 222.976562 152.171875 223.128906 152.03125 223.324219 151.976562 Z M 222.492188 150.921875 L 223.496094 150.109375 C 224.445312 149.402344 225.796875 148.585938 226.824219 148.074219 C 228.535156 147.21875 230.246094 146.234375 232.085938 145.328125 C 232.296875 145.226562 232.484375 145.164062 232.71875 145.054688 C 234.261719 144.320312 236.628906 142.28125 237.375 140.796875 C 238.40625 138.75 238.257812 135.855469 237.070312 133.921875 C 236.605469 133.164062 235.566406 132.257812 234.355469 132.257812 C 233.703125 132.257812 233.675781 132.195312 233.378906 132.566406 C 233.238281 132.746094 233.164062 132.828125 233.023438 133.042969 C 231.710938 135.015625 232.492188 137.394531 230.964844 139.296875 C 230.582031 139.777344 229.609375 140.34375 228.761719 140.34375 C 227.011719 140.34375 226.726562 139.492188 226.421875 139.285156 C 225.574219 142.921875 224.027344 146.765625 222.75 150.273438 C 222.648438 150.519531 222.542969 150.699219 222.492188 150.921875 Z M 217.390625 160.882812 C 216.511719 162.058594 215.535156 163.773438 214.65625 165.054688 C 213.269531 167.105469 211.769531 168.847656 210.132812 170.6875 C 209.839844 171.0625 209.960938 171.015625 210.472656 171.019531 C 211.746094 171.035156 213.667969 171.578125 214.832031 172.125 C 215.707031 172.539062 216.785156 173.472656 217.335938 174.210938 C 217.5 174.4375 217.648438 174.644531 217.78125 174.898438 C 218.722656 176.644531 217.515625 178.117188 216.199219 179.234375 C 215.375 179.929688 214.382812 180.515625 213.394531 180.960938 C 212.625 181.308594 211.753906 181.65625 210.960938 181.925781 C 208.984375 182.597656 206.765625 183.277344 204.714844 183.617188 C 201.730469 184.109375 199.03125 184.460938 195.988281 184.738281 C 188.890625 185.378906 180.21875 185.285156 173.191406 184.453125 C 169.335938 183.992188 166.371094 183.363281 162.640625 182.359375 C 160.699219 181.839844 158.339844 180.835938 156.746094 179.566406 C 154.703125 177.933594 154.160156 175.96875 155.773438 173.890625 C 156.710938 172.6875 158.054688 171.886719 159.488281 171.40625 C 160.15625 171.183594 160.476562 171.132812 160.714844 171.054688 C 160.636719 170.949219 160.53125 170.816406 160.40625 170.699219 L 157.964844 167.90625 L 153.582031 161.875 C 153.074219 161.15625 152.5625 160.390625 152.148438 159.609375 C 151.664062 159.722656 151.296875 159.765625 150.746094 159.867188 C 147.824219 160.40625 144.789062 161.285156 141.957031 162.1875 C 139.910156 162.839844 137.253906 163.972656 135.34375 164.996094 L 134.183594 165.679688 C 132.070312 166.921875 130.492188 168.144531 128.960938 170.109375 C 128.246094 171.027344 127.730469 172.0625 127.699219 173.371094 C 127.652344 175.414062 129.207031 177.460938 130.558594 178.503906 C 132.085938 179.675781 133.183594 180.359375 134.898438 181.320312 C 137.886719 182.988281 141.183594 184.152344 144.433594 185.234375 C 146.039062 185.769531 147.734375 186.195312 149.34375 186.667969 C 151.457031 187.289062 154.894531 188.015625 157.078125 188.453125 C 158.878906 188.8125 160.574219 189.175781 162.402344 189.476562 C 163.265625 189.621094 164.253906 189.785156 165.148438 189.902344 C 176.222656 191.398438 184.714844 191.507812 195.53125 190.222656 C 197.015625 190.046875 198.480469 189.722656 199.960938 189.515625 C 201.476562 189.304688 202.929688 188.980469 204.4375 188.777344 C 206.667969 188.484375 208.789062 187.992188 210.996094 187.632812 L 213.117188 187.183594 C 215.945312 186.621094 218.699219 185.90625 221.496094 185.207031 L 225.464844 184.042969 C 226.804688 183.597656 228.023438 183.203125 229.359375 182.71875 C 233.019531 181.40625 237.4375 179.527344 240.421875 177.011719 C 241.3125 176.261719 242.324219 175.382812 242.925781 174.375 C 244.160156 172.3125 244.242188 170.535156 242.863281 168.480469 C 241.292969 166.140625 238.695312 164.410156 236.265625 163.0625 C 233.425781 161.480469 229.523438 159.945312 226.226562 159.125 C 225.851562 159.035156 224.984375 158.847656 224.683594 158.703125 C 224.183594 159.742188 224.128906 160.859375 223.421875 162.128906 C 222.453125 163.875 220.695312 164.386719 219.371094 163.898438 C 218.179688 163.460938 217.390625 162.121094 217.390625 160.882812 Z M 204.699219 175.953125 C 205.144531 176.121094 205.785156 176.195312 206.355469 176.425781 C 206.855469 176.625 207.320312 176.875 207.726562 177.171875 C 209.058594 178.132812 210.175781 179.730469 208.722656 181.203125 C 208.503906 181.425781 208.414062 181.503906 208.160156 181.695312 C 207.945312 181.855469 207.304688 182.175781 207.246094 182.222656 C 207.742188 182.222656 208.652344 181.871094 209.058594 181.761719 C 210.359375 181.410156 211.925781 180.964844 213.121094 180.308594 C 213.53125 180.082031 213.925781 179.894531 214.355469 179.65625 C 216.539062 178.449219 218.027344 176.546875 215.789062 174.398438 C 215.308594 173.9375 214.554688 173.542969 213.890625 173.273438 C 213.230469 173.007812 212.242188 172.75 211.453125 172.617188 C 210.84375 172.511719 209.050781 172.234375 208.632812 172.273438 C 207.703125 173.246094 206.425781 174.519531 205.390625 175.382812 C 205.25 175.511719 204.960938 175.78125 204.699219 175.953125 Z M 205.886719 176.695312 C 205.636719 176.523438 205.203125 176.382812 204.898438 176.253906 C 204.542969 176.109375 204.460938 176.117188 204.28125 176.382812 C 204.554688 176.390625 204.78125 176.457031 205.035156 176.5 C 205.152344 176.519531 205.683594 176.660156 205.886719 176.695312 Z M 163.046875 181.363281 C 162.722656 180.878906 162.175781 180.234375 162.4375 179.417969 C 162.949219 177.824219 165.609375 176.835938 167.410156 176.835938 L 165.832031 175.617188 C 164.367188 174.484375 162.972656 172.773438 161.59375 171.851562 C 159.585938 172.390625 158.632812 172.867188 157.632812 173.730469 C 156.632812 174.59375 155.824219 175.796875 156.3125 177.132812 C 156.757812 178.351562 158.058594 179.164062 159.121094 179.761719 C 159.878906 180.1875 162.421875 181.347656 163.046875 181.363281 Z M 170.648438 177.953125 C 171.019531 178.277344 171.976562 178.660156 172.484375 178.867188 C 176.65625 180.558594 180.871094 181.296875 185.621094 181.296875 C 186.804688 181.296875 188.179688 181.335938 189.289062 181.195312 C 190.675781 181.023438 192.34375 180.734375 193.699219 180.457031 C 194.886719 180.214844 198.972656 179.042969 200.75 177.800781 C 199.605469 178.097656 197.902344 178.667969 196.746094 178.894531 C 195.605469 179.121094 194.578125 179.5 193.359375 179.738281 C 191.699219 180.066406 189.503906 180.382812 187.738281 180.4375 C 186.210938 180.480469 184.117188 180.460938 182.574219 180.257812 C 179.578125 179.867188 177.359375 179.546875 174.371094 178.945312 Z M 167.714844 177.0625 C 166.746094 177.0625 164.234375 178.097656 163.457031 178.867188 C 162.589844 179.722656 162.847656 180.675781 164.105469 181.578125 C 164.417969 181.804688 165.175781 181.964844 165.644531 182.082031 C 167.574219 182.5625 170.414062 183.039062 173.234375 183.386719 C 180.703125 184.3125 188.253906 184.207031 195.746094 183.6875 L 200.027344 183.386719 C 203.246094 182.960938 205.105469 183.113281 207.472656 181.539062 C 209.972656 179.871094 208.414062 177.78125 206.066406 177.015625 C 203.503906 176.179688 204.550781 176.261719 202.644531 177.691406 C 202.117188 178.082031 199.007812 179.851562 198.238281 180.238281 C 195.027344 181.847656 191.015625 182.15625 187.335938 182.378906 C 184.054688 182.578125 181.839844 182.277344 178.6875 181.730469 C 175.820312 181.058594 172.105469 180.09375 169.738281 178.503906 C 169.378906 178.261719 167.894531 177.0625 167.714844 177.0625 Z M 149 187.800781 C 149.246094 188.140625 152.480469 190 153.054688 190.285156 C 161.191406 194.320312 165.75 195.609375 174.546875 196.828125 C 175.011719 196.890625 175.371094 196.898438 175.84375 196.964844 C 176.660156 197.078125 177.675781 197.226562 178.519531 197.238281 L 184.109375 197.539062 C 186.039062 197.53125 188.066406 197.667969 189.992188 197.453125 C 197.292969 196.632812 202.453125 196.28125 209.710938 193.597656 C 210.371094 193.355469 211.140625 193.054688 211.8125 192.753906 L 215.792969 190.839844 C 217.105469 190.175781 222.265625 186.847656 222.792969 186.054688 C 220.941406 186.554688 219.164062 186.996094 217.296875 187.433594 C 215.125 187.898438 212.730469 188.273438 210.609375 188.792969 C 212.292969 188.769531 213.535156 188.609375 215.207031 188.363281 C 215.902344 188.261719 217.074219 188.113281 217.734375 187.945312 C 217.988281 187.882812 218.183594 187.800781 218.488281 187.792969 C 216.082031 188.6875 214.421875 189.324219 211.828125 190.0625 C 212.226562 190.0625 216.441406 189.144531 217.027344 188.976562 L 218.410156 188.546875 C 218.164062 188.761719 217.945312 188.78125 217.632812 188.902344 L 215.347656 189.863281 C 213.820312 190.503906 212.121094 191.140625 210.523438 191.539062 C 207.480469 192.300781 204.464844 192.808594 201.367188 193.265625 C 193.226562 194.464844 181.144531 194.761719 173.105469 193.988281 C 170.753906 193.761719 168.023438 193.40625 166.761719 193.125 C 166.160156 192.992188 165.625 192.886719 165.023438 192.75 L 162.777344 192.179688 C 160.355469 191.566406 155.203125 190.261719 149 187.800781 Z M 181.542969 198.519531 C 178.179688 198.417969 175.023438 198.089844 171.78125 197.550781 C 169.183594 197.117188 166.574219 196.597656 164.070312 195.894531 C 161.714844 195.230469 159.433594 194.367188 157.199219 193.472656 C 154.738281 192.484375 152.402344 191.230469 150.132812 189.882812 C 148.738281 189.058594 147.417969 188.144531 146.148438 187.144531 C 145.878906 186.933594 145.652344 186.773438 145.332031 186.675781 C 142.023438 185.636719 138.75 184.539062 135.652344 182.980469 C 132.820312 181.558594 129.894531 179.953125 127.960938 177.375 C 126.464844 175.382812 126.128906 173.34375 127.074219 171.027344 C 127.351562 170.34375 127.671875 170.003906 128.046875 169.433594 C 128.597656 168.589844 129.265625 168.078125 129.953125 167.414062 C 131.066406 166.335938 132.410156 165.488281 133.738281 164.695312 C 135.167969 163.839844 136.550781 163.203125 138.042969 162.507812 C 139.472656 161.839844 141.304688 161.273438 142.808594 160.773438 C 144.828125 160.101562 146.871094 159.605469 148.945312 159.125 C 152.097656 158.472656 151.820312 159.117188 150.792969 157.339844 L 148.976562 153.941406 C 147.191406 150.375 145.6875 146.832031 144.394531 142.957031 C 142.933594 138.578125 141.226562 132.59375 140.878906 127.585938 C 140.753906 125.765625 140.921875 124.019531 141.03125 122.199219 C 141.460938 120.136719 142.429688 119.042969 144.03125 117.921875 C 146.179688 116.417969 149.214844 114.839844 151.46875 113.59375 C 153.09375 112.78125 154.71875 112.117188 156.390625 111.417969 C 162.816406 108.941406 168.222656 107.875 175.066406 106.96875 C 184.453125 105.730469 196.578125 106.597656 205.84375 108.710938 C 207.121094 109 208.386719 109.34375 209.632812 109.683594 L 211.117188 110.164062 C 213.515625 110.839844 217.484375 112.480469 219.542969 113.675781 C 220.984375 114.511719 222.5 115.308594 223.800781 116.367188 C 224.289062 116.789062 224.941406 117.285156 225.382812 117.730469 C 226.535156 118.882812 227.992188 121.257812 228.113281 122.875 C 228.167969 123.542969 228.230469 123.976562 228.308594 124.703125 C 228.808594 124.371094 229.039062 124.117188 229.636719 123.761719 C 230.125 123.472656 230.628906 123.265625 231.207031 123.066406 C 233.988281 122.117188 237.53125 122.089844 240.292969 123.148438 C 242.429688 123.964844 244.925781 125.746094 246.558594 128.15625 C 248.269531 130.679688 248.863281 133.34375 248.863281 136.414062 C 248.863281 140.308594 246.957031 144.707031 244.234375 147.425781 C 242.140625 149.519531 239.550781 151.078125 236.707031 152.34375 C 233.898438 153.59375 230.96875 154.5625 228.140625 155.75 C 227.15625 156.195312 225.441406 156.75 225.136719 157.71875 C 225.867188 157.738281 228.496094 158.628906 229.261719 158.882812 C 231.9375 159.773438 234.835938 160.859375 237.25 162.304688 C 239.519531 163.664062 241.316406 164.832031 243.101562 166.878906 C 244.761719 168.78125 245.546875 171.328125 244.566406 173.75 C 243.851562 175.519531 242.582031 176.597656 241.25 177.839844 C 239.378906 179.578125 236.507812 180.882812 234.175781 182.023438 C 230.839844 183.585938 228.578125 184.195312 225.367188 185.304688 C 224.972656 185.441406 225.203125 185.308594 224.960938 185.574219 C 223.109375 187.601562 220.082031 189.601562 217.707031 191.015625 C 216.28125 191.871094 214.894531 192.613281 213.328125 193.285156 C 209.425781 194.964844 205.417969 196.414062 201.164062 197.140625 C 193.988281 198.367188 188.738281 198.730469 181.542969 198.519531 " fill-opacity="1" fill-rule="evenodd"/></g><path fill="#4d2b08" d="M 200.503906 110.722656 C 204.027344 111.5 207.757812 112.421875 210.894531 113.550781 C 213.851562 114.617188 220.429688 117.460938 218.667969 121.027344 C 217.953125 122.472656 216.328125 123.75 215.011719 124.625 C 214.496094 124.972656 213.980469 125.308594 213.4375 125.609375 C 213.890625 124.414062 213.625 123.464844 212.367188 122.507812 C 209.917969 120.648438 205.0625 119.78125 201.878906 119.398438 C 198.785156 119.03125 195.527344 118.648438 192.417969 118.65625 C 185.960938 118.675781 180.386719 118.570312 173.921875 119.273438 C 173.285156 119.34375 172.554688 119.476562 171.929688 119.550781 C 170.632812 119.703125 169.417969 120.058594 168.160156 120.3125 C 166.117188 120.730469 156.078125 123.390625 156.078125 126.363281 L 154.917969 125.785156 C 154.492188 125.554688 154.1875 125.386719 153.808594 125.160156 C 150.703125 123.304688 147.4375 120.59375 151.597656 117.503906 C 152.957031 116.492188 154.535156 115.589844 156.175781 114.867188 C 156.957031 114.523438 157.796875 114.242188 158.5625 113.964844 C 159.742188 113.539062 160.902344 113.125 162.09375 112.78125 C 163.574219 112.359375 165.066406 111.902344 166.550781 111.511719 C 168.613281 110.96875 170.832031 110.488281 172.839844 110.175781 C 174.6875 109.882812 176.558594 109.691406 178.398438 109.398438 C 179.335938 109.246094 180.558594 109.085938 181.539062 108.988281 C 181.539062 108.804688 179.363281 109.054688 179.050781 109.0625 C 175.492188 109.171875 172.007812 109.734375 168.550781 110.429688 L 165.265625 111.148438 C 163.507812 111.550781 161.804688 112.007812 160.109375 112.566406 C 159.726562 112.691406 159.457031 112.800781 159.109375 112.925781 L 157.132812 113.59375 C 155.277344 114.332031 153.449219 115.09375 151.753906 116.148438 C 150.292969 117.0625 148.1875 118.933594 148.550781 120.894531 C 148.785156 122.175781 149.261719 122.59375 149.925781 123.449219 C 150.585938 124.300781 151.972656 125.242188 152.878906 125.785156 C 154.300781 126.628906 155.765625 127.390625 157.296875 128.015625 C 157.960938 128.289062 158.585938 128.488281 159.273438 128.761719 C 162.871094 130.183594 168.226562 131.367188 172.089844 131.8125 L 181.53125 132.550781 C 183.894531 132.738281 186.113281 132.738281 188.460938 132.804688 C 189.273438 132.828125 190.203125 132.828125 191.007812 132.785156 C 193.183594 132.664062 194.832031 132.464844 196.984375 132.171875 C 200.136719 131.746094 202.695312 131.203125 205.605469 130.167969 L 206.738281 129.765625 C 208.828125 129.023438 210.257812 128.472656 212.238281 127.429688 C 213.699219 126.667969 215.089844 125.867188 216.21875 125.023438 C 217.667969 123.9375 219.320312 122.433594 219.710938 120.582031 C 220.160156 118.421875 218.53125 116.625 216.859375 115.601562 C 212.867188 113.171875 207.480469 111.71875 202.902344 111.046875 C 202.464844 110.984375 202.117188 110.949219 201.722656 110.867188 C 201.46875 110.816406 200.792969 110.722656 200.503906 110.722656 Z M 177.074219 119.582031 C 178.171875 119.75 179.234375 119.839844 180.316406 120.109375 C 181.21875 120.332031 182.007812 120.570312 182.847656 120.902344 C 185.398438 121.917969 188.367188 124.253906 184.5625 126.136719 C 182.785156 127.019531 181.390625 127.394531 179.246094 128.453125 C 175.796875 130.160156 177.929688 131.542969 178.382812 131.636719 C 179.105469 131.785156 183.886719 131.957031 184.636719 131.957031 C 185.703125 131.980469 186.753906 132.035156 187.761719 132.027344 C 189.523438 132.007812 191.800781 131.890625 193.496094 131.648438 C 193.265625 131.375 193.007812 131.503906 192.5625 131.503906 C 191.210938 131.511719 189.753906 131.507812 188.8125 130.578125 C 188.140625 129.917969 188.1875 129.777344 188.1875 129.007812 C 188.1875 126.46875 194.6875 124.9375 194.6875 122.359375 C 194.6875 120.707031 190.628906 119.320312 189.925781 119.261719 L 185.832031 119.175781 C 182.808594 119.179688 180.058594 119.25 177.074219 119.582031 Z M 197.179688 121.226562 C 197.71875 121.226562 198.664062 121.597656 198.664062 122.292969 C 198.664062 123.074219 198.121094 123.375 197.332031 123.191406 C 197.339844 122.753906 197.460938 122.59375 197.164062 122.226562 C 196.980469 122.003906 196.722656 121.757812 196.425781 121.679688 C 196.5 121.363281 196.652344 121.226562 197.179688 121.226562 Z M 200.277344 121.679688 C 200.359375 121.226562 201.816406 120.910156 202.027344 121.695312 C 202.117188 122.042969 201.628906 122.347656 200.910156 122.238281 C 200.292969 122.144531 200.273438 121.707031 200.277344 121.679688 Z M 167.5625 126.136719 C 166.648438 126.136719 166.933594 125.304688 168.015625 125.304688 C 168.34375 125.304688 168.46875 125.4375 168.621094 125.609375 C 168.550781 125.90625 168.574219 125.917969 168.277344 126.019531 C 168.070312 126.09375 167.808594 126.136719 167.5625 126.136719 Z M 161.367188 126.589844 C 161.367188 125.722656 164.160156 125.558594 164.160156 126.289062 C 164.160156 127.296875 161.367188 127.488281 161.367188 126.589844 Z M 194.234375 129.914062 C 194.234375 129.488281 195.894531 129.078125 195.894531 129.992188 C 195.894531 130.53125 194.234375 130.542969 194.234375 129.914062 " fill-opacity="1" fill-rule="evenodd"/><path fill="#4d2b08" d="M 219.242188 135.429688 C 219.457031 135.375 220.765625 134.289062 220.964844 134.128906 C 221.882812 133.382812 223.183594 132.011719 223.867188 130.988281 L 225.0625 129.160156 L 223.644531 130.765625 C 223.132812 131.300781 222.691406 131.792969 222.171875 132.316406 L 219.976562 134.652344 C 219.730469 134.945312 219.449219 135.125 219.242188 135.429688 " fill-opacity="1" fill-rule="evenodd"/><path fill="#4d2b08" d="M 164.84375 171.925781 C 165.078125 172.277344 167.726562 173.945312 168.019531 174.113281 C 168.785156 174.558594 170.898438 175.550781 172.019531 175.550781 C 171.804688 175.363281 170.644531 174.9375 170.207031 174.722656 L 164.84375 171.925781 " fill-opacity="1" fill-rule="evenodd"/><path fill="#4d2b08" d="M 162.800781 169.808594 C 162.960938 170.046875 163.273438 170.246094 163.527344 170.445312 C 164.589844 171.28125 164.433594 171.351562 165.988281 172.289062 C 166.953125 172.867188 168.875 173.785156 169.980469 174.039062 C 169.84375 173.855469 168.410156 173.230469 168.152344 173.074219 L 166.347656 172.003906 C 165.738281 171.640625 165.210938 171.277344 164.582031 170.902344 C 164.289062 170.722656 163.035156 169.871094 162.800781 169.808594 " fill-opacity="1" fill-rule="evenodd"/><path fill="#4d2b08" d="M 207.304688 170.566406 C 207.054688 170.632812 206.863281 170.867188 206.476562 171.097656 C 204.507812 172.285156 204.164062 172.546875 201.964844 173.613281 C 200.992188 174.085938 200.273438 174.136719 199.972656 174.261719 C 199.863281 174.308594 199.882812 174.300781 199.824219 174.34375 C 201.152344 174.34375 202.96875 173.558594 204.082031 173.007812 C 204.847656 172.628906 206.980469 171.050781 207.304688 170.566406 " fill-opacity="1" fill-rule="evenodd"/><path fill="#4d2b08" d="M 150.636719 137.394531 C 150.449219 137.117188 150.183594 136.980469 149.9375 136.734375 C 149.691406 136.488281 149.503906 136.296875 149.257812 136.054688 C 149.09375 135.890625 149.054688 135.878906 148.886719 135.746094 L 145.328125 132.503906 C 145.152344 132.3125 145.136719 132.269531 144.96875 132.183594 C 145.511719 133.203125 147.40625 135.019531 148.261719 135.691406 L 150.175781 137.105469 C 150.390625 137.277344 150.378906 137.328125 150.636719 137.394531 " fill-opacity="1" fill-rule="evenodd"/><path fill="#4d2b08" d="M 219.773438 136.941406 C 220.074219 136.863281 220.167969 136.632812 220.40625 136.445312 C 220.664062 136.246094 220.832031 136.109375 221.082031 135.910156 C 221.933594 135.222656 224.117188 133.085938 224.382812 131.957031 C 224.152344 132.109375 224 132.300781 223.796875 132.503906 L 220.359375 136.320312 C 220.140625 136.535156 219.933594 136.699219 219.773438 136.941406 " fill-opacity="1" fill-rule="evenodd"/><path fill="#4d2b08" d="M 202.316406 171.773438 C 203.085938 171.710938 204.871094 170.882812 205.460938 170.535156 C 205.941406 170.246094 207.730469 169.058594 207.984375 168.675781 L 202.496094 171.648438 C 202.351562 171.742188 202.433594 171.675781 202.316406 171.773438 " fill-opacity="1" fill-rule="evenodd"/><path fill="#4d2b08" d="M 149.882812 138.679688 C 149.695312 138.402344 146.371094 135.289062 145.898438 134.808594 C 145.640625 134.546875 145.566406 134.496094 145.273438 134.296875 C 145.367188 134.644531 146.007812 135.222656 146.242188 135.519531 C 146.59375 135.960938 149.53125 138.585938 149.882812 138.679688 " fill-opacity="1" fill-rule="evenodd"/><path fill="#4d2b08" d="M 240.019531 147.21875 C 239.640625 147.472656 239.609375 147.78125 239.007812 148.246094 C 238.296875 148.792969 237.785156 149.347656 236.738281 150.132812 C 236.359375 150.417969 235.796875 150.726562 235.5625 151.070312 C 235.9375 150.984375 236.570312 150.578125 236.894531 150.363281 C 237.488281 149.96875 238.695312 148.96875 239.113281 148.429688 C 239.359375 148.113281 239.953125 147.46875 240.019531 147.21875 " fill-opacity="1" fill-rule="evenodd"/><path fill="#4d2b08" d="M 211.988281 162.933594 C 211.496094 163.050781 209.707031 164.027344 209.167969 164.34375 C 208.859375 164.527344 208.542969 164.703125 208.363281 164.972656 C 208.953125 164.925781 210.621094 164.09375 211.210938 163.589844 C 211.378906 163.449219 211.386719 163.421875 211.578125 163.277344 C 211.75 163.152344 211.882812 163.078125 211.988281 162.933594 " fill-opacity="1" fill-rule="evenodd"/><path fill="#4d2b08" d="M 238.886719 149.03125 C 239.78125 148.792969 242.28125 146.011719 242.363281 145.027344 C 241.617188 145.886719 240.605469 147.625 239.40625 148.570312 C 239.226562 148.710938 239.003906 148.859375 238.886719 149.03125 " fill-opacity="1" fill-rule="evenodd"/><path fill="#4d2b08" d="M 244.027344 143.214844 L 243.773438 143.640625 C 243.414062 144.371094 242.570312 145.886719 242.042969 146.445312 C 241.886719 146.609375 241.808594 146.65625 241.683594 146.839844 C 242.019531 146.75 242.222656 146.414062 242.460938 146.179688 C 243.117188 145.527344 243.980469 143.738281 244.027344 143.214844 " fill-opacity="1" fill-rule="evenodd"/><path fill="#4d2b08" d="M 223.851562 151.828125 C 224.070312 151.683594 224.21875 151.601562 224.402344 151.394531 C 224.550781 151.222656 224.78125 150.976562 224.835938 150.769531 C 224.632812 150.902344 224.503906 151.0625 224.324219 151.242188 C 224.132812 151.433594 223.925781 151.546875 223.851562 151.828125 " fill-opacity="1" fill-rule="evenodd"/><path fill="#4d2b08" d="M 225.136719 150.921875 C 225.347656 150.777344 225.753906 150.328125 225.816406 150.089844 C 225.570312 150.253906 225.214844 150.632812 225.136719 150.921875 " fill-opacity="1" fill-rule="evenodd"/><path fill="#4d2b08" d="M 184.675781 100.757812 C 185.355469 100.121094 186.425781 98.160156 186.714844 97.433594 C 187.898438 94.453125 187.648438 91.550781 186.421875 88.507812 C 185.664062 86.625 184.808594 84.789062 183.992188 82.925781 C 181.8125 77.960938 181.640625 73.394531 184.976562 68.945312 C 185.113281 68.761719 185.25 68.578125 185.386719 68.394531 C 185.324219 68.59375 185.246094 68.820312 185.214844 68.957031 C 185.027344 69.78125 184.527344 70.976562 184.523438 73.78125 C 184.519531 78.851562 186.859375 83.066406 189.007812 87.359375 C 191.109375 91.558594 192.515625 97.097656 188.042969 100.347656 C 187.398438 100.816406 186.019531 101.417969 184.996094 101.835938 C 184.664062 101.96875 184.242188 102.089844 183.996094 102.34375 C 187.675781 102.34375 190.398438 100.445312 191.542969 96.894531 C 192.128906 95.070312 191.839844 92.820312 191.414062 91.144531 C 190.558594 87.777344 187.84375 84.082031 186.421875 79.816406 C 186.140625 78.972656 185.914062 78.210938 185.722656 77.265625 C 185.066406 73.976562 185.144531 69.300781 187.167969 66.378906 C 186.890625 66.558594 186.574219 66.765625 186.3125 66.960938 C 185.707031 67.414062 184.601562 68.539062 184.132812 69.164062 C 180.816406 73.609375 181.148438 78.117188 183.035156 82.828125 C 185.40625 88.757812 188.152344 91.925781 185.472656 98.609375 C 185.242188 99.21875 184.816406 100.152344 184.675781 100.757812 " fill-opacity="1" fill-rule="evenodd"/><g clip-path="url(#86688d69f5)"><path fill="#4d2b08" d="M 187.449219 77.085938 C 187.34375 75.796875 187.574219 74.9375 188.09375 73.726562 C 188.542969 72.683594 189.019531 71.914062 189.617188 71.019531 C 190.351562 69.910156 190.566406 69.648438 191.386719 68.632812 C 192.21875 67.609375 192.433594 67.238281 193.105469 66.121094 C 195.042969 62.894531 193.226562 58.496094 189.292969 58.90625 C 188.460938 58.992188 187.683594 59.363281 187.199219 59.988281 C 187.019531 60.21875 186.816406 60.296875 186.789062 60.636719 C 187.285156 60.375 187.25 60.164062 188 60.109375 C 191.183594 59.882812 192.046875 62.621094 190.871094 65.019531 C 190.191406 66.414062 188.882812 67.953125 188.015625 69.265625 C 187.4375 70.132812 187.164062 70.558594 186.757812 71.558594 C 186.332031 72.601562 186.183594 74.132812 186.550781 75.304688 C 186.734375 75.890625 187.027344 76.644531 187.449219 77.085938 Z M 187.941406 59.820312 C 188.199219 59.628906 188.503906 59.582031 188.683594 59.535156 C 189.359375 59.359375 190.363281 59.433594 190.992188 59.683594 C 191.777344 60 192.367188 60.644531 192.757812 61.320312 C 193.136719 61.972656 193.457031 62.984375 193.441406 64.039062 C 193.421875 65.679688 191.808594 67.703125 190.804688 68.957031 C 190.324219 69.5625 189.460938 70.394531 188.839844 71.222656 C 188.230469 72.039062 187.617188 72.878906 187.21875 73.835938 C 187.128906 74.058594 187.027344 74.363281 186.980469 74.601562 C 186.804688 73.6875 187.027344 72.554688 187.234375 71.882812 C 187.460938 71.140625 187.753906 70.523438 188.097656 69.878906 C 189.113281 67.992188 190.542969 66.566406 191.347656 64.511719 C 191.597656 63.867188 191.863281 62.992188 191.660156 62.039062 C 191.332031 60.472656 190.203125 59.855469 188.730469 59.746094 C 188.566406 59.734375 188.226562 59.738281 187.941406 59.820312 " fill-opacity="1" fill-rule="evenodd"/></g><g fill="#4d2b08" fill-opacity="1"><g transform="translate(142.714661, 247.651683)"><g><path d="M 6.75 -5.25 C 7.25 -4.707031 7.816406 -4.328125 8.453125 -4.109375 C 9.097656 -3.890625 9.734375 -3.78125 10.359375 -3.78125 C 11.316406 -3.78125 12.1875 -4.078125 12.96875 -4.671875 C 13.757812 -5.273438 14.4375 -6.054688 15 -7.015625 C 15.5625 -7.972656 15.992188 -9.050781 16.296875 -10.25 C 16.609375 -11.457031 16.765625 -12.664062 16.765625 -13.875 C 16.765625 -15.445312 16.507812 -16.613281 16 -17.375 C 15.488281 -18.144531 14.773438 -18.53125 13.859375 -18.53125 C 13.253906 -18.53125 12.644531 -18.328125 12.03125 -17.921875 C 11.425781 -17.523438 10.835938 -16.972656 10.265625 -16.265625 C 9.703125 -15.554688 9.175781 -14.722656 8.6875 -13.765625 C 8.195312 -12.804688 7.773438 -11.769531 7.421875 -10.65625 Z M 8.328125 -17.984375 C 9.378906 -19.453125 10.546875 -20.613281 11.828125 -21.46875 C 13.117188 -22.332031 14.492188 -22.765625 15.953125 -22.765625 C 16.878906 -22.765625 17.722656 -22.59375 18.484375 -22.25 C 19.242188 -21.914062 19.890625 -21.40625 20.421875 -20.71875 C 20.960938 -20.03125 21.378906 -19.160156 21.671875 -18.109375 C 21.960938 -17.066406 22.109375 -15.835938 22.109375 -14.421875 C 22.109375 -13.148438 21.976562 -11.898438 21.71875 -10.671875 C 21.457031 -9.453125 21.085938 -8.296875 20.609375 -7.203125 C 20.140625 -6.117188 19.566406 -5.113281 18.890625 -4.1875 C 18.222656 -3.269531 17.484375 -2.476562 16.671875 -1.8125 C 15.867188 -1.144531 15.003906 -0.617188 14.078125 -0.234375 C 13.160156 0.140625 12.203125 0.328125 11.203125 0.328125 C 10.066406 0.328125 9.046875 0.0976562 8.140625 -0.359375 C 7.242188 -0.816406 6.488281 -1.441406 5.875 -2.234375 L 5.703125 -1.484375 C 5.546875 -0.972656 5.332031 -0.597656 5.0625 -0.359375 C 4.800781 -0.117188 4.378906 0 3.796875 0 L 0.875 0 L 4.8125 -32.46875 L 10.09375 -32.46875 Z M 8.328125 -17.984375 "/></g></g></g><g fill="#4d2b08" fill-opacity="1"><g transform="translate(166.268568, 247.651683)"><g><path d="M 9.09375 -22.421875 L 6.40625 0 L 1.09375 0 L 3.78125 -22.421875 Z M 10.46875 -28.953125 C 10.46875 -28.484375 10.367188 -28.046875 10.171875 -27.640625 C 9.972656 -27.234375 9.710938 -26.875 9.390625 -26.5625 C 9.078125 -26.257812 8.710938 -26.015625 8.296875 -25.828125 C 7.890625 -25.648438 7.46875 -25.5625 7.03125 -25.5625 C 6.613281 -25.5625 6.207031 -25.648438 5.8125 -25.828125 C 5.414062 -26.015625 5.066406 -26.257812 4.765625 -26.5625 C 4.460938 -26.875 4.21875 -27.234375 4.03125 -27.640625 C 3.851562 -28.046875 3.765625 -28.484375 3.765625 -28.953125 C 3.765625 -29.421875 3.859375 -29.863281 4.046875 -30.28125 C 4.234375 -30.707031 4.476562 -31.078125 4.78125 -31.390625 C 5.09375 -31.703125 5.445312 -31.945312 5.84375 -32.125 C 6.25 -32.3125 6.660156 -32.40625 7.078125 -32.40625 C 7.515625 -32.40625 7.9375 -32.3125 8.34375 -32.125 C 8.75 -31.945312 9.109375 -31.703125 9.421875 -31.390625 C 9.742188 -31.085938 10 -30.722656 10.1875 -30.296875 C 10.375 -29.878906 10.46875 -29.429688 10.46875 -28.953125 Z M 10.46875 -28.953125 "/></g></g></g><g fill="#4d2b08" fill-opacity="1"><g transform="translate(176.974893, 247.651683)"><g><path d="M 9.0625 -22.421875 L 6.25 0.765625 C 6.132812 1.742188 5.890625 2.660156 5.515625 3.515625 C 5.140625 4.378906 4.640625 5.132812 4.015625 5.78125 C 3.390625 6.425781 2.632812 6.929688 1.75 7.296875 C 0.875 7.671875 -0.128906 7.859375 -1.265625 7.859375 C -1.847656 7.859375 -2.34375 7.828125 -2.75 7.765625 C -3.15625 7.703125 -3.566406 7.597656 -3.984375 7.453125 L -3.453125 4.546875 C -3.378906 4.253906 -3.242188 4.066406 -3.046875 3.984375 C -2.847656 3.910156 -2.503906 3.875 -2.015625 3.875 C -1.535156 3.875 -1.125 3.816406 -0.78125 3.703125 C -0.4375 3.597656 -0.148438 3.421875 0.078125 3.171875 C 0.316406 2.929688 0.503906 2.613281 0.640625 2.21875 C 0.785156 1.832031 0.894531 1.347656 0.96875 0.765625 L 3.78125 -22.421875 Z M 10.265625 -28.953125 C 10.265625 -28.484375 10.164062 -28.046875 9.96875 -27.640625 C 9.78125 -27.234375 9.523438 -26.875 9.203125 -26.5625 C 8.878906 -26.257812 8.515625 -26.015625 8.109375 -25.828125 C 7.703125 -25.648438 7.28125 -25.5625 6.84375 -25.5625 C 6.414062 -25.5625 6.003906 -25.648438 5.609375 -25.828125 C 5.222656 -26.015625 4.875 -26.257812 4.5625 -26.5625 C 4.257812 -26.875 4.015625 -27.234375 3.828125 -27.640625 C 3.648438 -28.046875 3.5625 -28.484375 3.5625 -28.953125 C 3.5625 -29.421875 3.65625 -29.863281 3.84375 -30.28125 C 4.03125 -30.707031 4.273438 -31.078125 4.578125 -31.390625 C 4.890625 -31.703125 5.242188 -31.945312 5.640625 -32.125 C 6.046875 -32.3125 6.460938 -32.40625 6.890625 -32.40625 C 7.316406 -32.40625 7.734375 -32.3125 8.140625 -32.125 C 8.554688 -31.945312 8.921875 -31.703125 9.234375 -31.390625 C 9.546875 -31.085938 9.796875 -30.722656 9.984375 -30.296875 C 10.171875 -29.878906 10.265625 -29.429688 10.265625 -28.953125 Z M 10.265625 -28.953125 "/></g></g></g><g fill="#4d2b08" fill-opacity="1"><g transform="translate(187.637513, 247.651683)"><g><path d="M 15.734375 -18.875 C 15.523438 -18.894531 15.328125 -18.90625 15.140625 -18.90625 C 14.960938 -18.914062 14.789062 -18.921875 14.625 -18.921875 C 13.414062 -18.921875 12.289062 -18.644531 11.25 -18.09375 C 10.21875 -17.539062 9.328125 -16.789062 8.578125 -15.84375 C 7.828125 -14.90625 7.234375 -13.8125 6.796875 -12.5625 C 6.367188 -11.320312 6.15625 -10.007812 6.15625 -8.625 C 6.15625 -7.050781 6.398438 -5.898438 6.890625 -5.171875 C 7.390625 -4.453125 8.070312 -4.09375 8.9375 -4.09375 C 9.53125 -4.09375 10.113281 -4.296875 10.6875 -4.703125 C 11.269531 -5.117188 11.816406 -5.6875 12.328125 -6.40625 C 12.847656 -7.132812 13.320312 -7.984375 13.75 -8.953125 C 14.1875 -9.929688 14.5625 -10.984375 14.875 -12.109375 Z M 14.25 -4.671875 C 13.257812 -3.140625 12.140625 -1.921875 10.890625 -1.015625 C 9.648438 -0.117188 8.289062 0.328125 6.8125 0.328125 C 5.96875 0.328125 5.175781 0.160156 4.4375 -0.171875 C 3.707031 -0.503906 3.066406 -1.003906 2.515625 -1.671875 C 1.972656 -2.335938 1.546875 -3.164062 1.234375 -4.15625 C 0.921875 -5.15625 0.765625 -6.328125 0.765625 -7.671875 C 0.765625 -9.015625 0.929688 -10.316406 1.265625 -11.578125 C 1.597656 -12.847656 2.070312 -14.039062 2.6875 -15.15625 C 3.3125 -16.269531 4.0625 -17.289062 4.9375 -18.21875 C 5.8125 -19.15625 6.789062 -19.957031 7.875 -20.625 C 8.957031 -21.300781 10.128906 -21.820312 11.390625 -22.1875 C 12.648438 -22.5625 13.984375 -22.75 15.390625 -22.75 C 16.390625 -22.75 17.394531 -22.675781 18.40625 -22.53125 C 19.414062 -22.382812 20.40625 -22.125 21.375 -21.75 L 18.6875 0 L 15.828125 0 C 15.140625 0 14.675781 -0.171875 14.4375 -0.515625 C 14.195312 -0.859375 14.078125 -1.285156 14.078125 -1.796875 Z M 14.25 -4.671875 "/></g></g></g><g fill="#4d2b08" fill-opacity="1"><g transform="translate(210.404834, 247.651683)"><g><path d="M 10.140625 -32.46875 L 7.859375 -13.875 L 8.40625 -13.875 C 8.75 -13.875 9.023438 -13.925781 9.234375 -14.03125 C 9.441406 -14.132812 9.664062 -14.320312 9.90625 -14.59375 L 15.859375 -21.484375 C 16.109375 -21.785156 16.367188 -22.015625 16.640625 -22.171875 C 16.921875 -22.335938 17.273438 -22.421875 17.703125 -22.421875 L 22.5 -22.421875 L 15.125 -14.09375 C 14.59375 -13.445312 14.023438 -12.945312 13.421875 -12.59375 C 13.691406 -12.382812 13.925781 -12.132812 14.125 -11.84375 C 14.320312 -11.550781 14.5 -11.226562 14.65625 -10.875 L 20.1875 0 L 15.515625 0 C 15.117188 0 14.789062 -0.0664062 14.53125 -0.203125 C 14.269531 -0.347656 14.054688 -0.601562 13.890625 -0.96875 L 9.546875 -9.46875 C 9.390625 -9.800781 9.21875 -10.015625 9.03125 -10.109375 C 8.851562 -10.210938 8.5625 -10.265625 8.15625 -10.265625 L 7.40625 -10.265625 L 6.15625 0 L 0.828125 0 L 4.828125 -32.46875 Z M 10.140625 -32.46875 "/></g></g></g><g fill="#4d2b08" fill-opacity="1"><g transform="translate(121.084798, 273.252932)"><g><path d="M 4.796875 0.078125 C 3.578125 0.078125 2.550781 -0.328125 1.71875 -1.140625 C 0.894531 -1.960938 0.484375 -3 0.484375 -4.25 C 0.484375 -5.5 0.894531 -6.53125 1.71875 -7.34375 C 2.550781 -8.15625 3.578125 -8.5625 4.796875 -8.5625 C 5.679688 -8.5625 6.46875 -8.351562 7.15625 -7.9375 C 7.84375 -7.519531 8.347656 -6.921875 8.671875 -6.140625 L 7.328125 -6.140625 C 6.816406 -7.097656 5.972656 -7.578125 4.796875 -7.578125 C 3.867188 -7.578125 3.101562 -7.269531 2.5 -6.65625 C 1.90625 -6.050781 1.609375 -5.242188 1.609375 -4.234375 C 1.609375 -3.234375 1.90625 -2.425781 2.5 -1.8125 C 3.101562 -1.207031 3.867188 -0.90625 4.796875 -0.90625 C 5.359375 -0.90625 5.859375 -1.03125 6.296875 -1.28125 C 6.742188 -1.53125 7.085938 -1.882812 7.328125 -2.34375 L 8.671875 -2.34375 C 8.347656 -1.5625 7.84375 -0.960938 7.15625 -0.546875 C 6.46875 -0.128906 5.679688 0.078125 4.796875 0.078125 Z M 4.796875 0.078125 "/></g></g></g><g fill="#4d2b08" fill-opacity="1"><g transform="translate(137.2264, 273.252932)"><g><path d="M 7.0625 -1.8125 C 7.664062 -2.425781 7.96875 -3.234375 7.96875 -4.234375 C 7.96875 -5.242188 7.664062 -6.050781 7.0625 -6.65625 C 6.46875 -7.269531 5.707031 -7.578125 4.78125 -7.578125 C 3.863281 -7.578125 3.101562 -7.269531 2.5 -6.65625 C 1.90625 -6.050781 1.609375 -5.242188 1.609375 -4.234375 C 1.609375 -3.234375 1.90625 -2.425781 2.5 -1.8125 C 3.101562 -1.207031 3.863281 -0.90625 4.78125 -0.90625 C 5.707031 -0.90625 6.46875 -1.207031 7.0625 -1.8125 Z M 4.796875 0.078125 C 3.578125 0.078125 2.550781 -0.328125 1.71875 -1.140625 C 0.894531 -1.960938 0.484375 -3 0.484375 -4.25 C 0.484375 -5.5 0.894531 -6.53125 1.71875 -7.34375 C 2.550781 -8.15625 3.578125 -8.5625 4.796875 -8.5625 C 6.015625 -8.5625 7.035156 -8.15625 7.859375 -7.34375 C 8.691406 -6.53125 9.109375 -5.492188 9.109375 -4.234375 C 9.109375 -2.984375 8.691406 -1.953125 7.859375 -1.140625 C 7.035156 -0.328125 6.015625 0.078125 4.796875 0.078125 Z M 4.796875 0.078125 "/></g></g></g><g fill="#4d2b08" fill-opacity="1"><g transform="translate(153.429113, 273.252932)"><g><path d="M 0.921875 0 L 0.921875 -8.484375 L 5.6875 -8.484375 L 5.6875 -7.578125 L 2.03125 -7.578125 L 2.03125 -4.703125 L 4.921875 -4.703125 L 4.921875 -3.828125 L 2.03125 -3.828125 L 2.03125 0 Z M 0.921875 0 "/></g></g></g><g fill="#4d2b08" fill-opacity="1"><g transform="translate(166.062814, 273.252932)"><g><path d="M 0.921875 0 L 0.921875 -8.484375 L 5.6875 -8.484375 L 5.6875 -7.578125 L 2.03125 -7.578125 L 2.03125 -4.703125 L 4.921875 -4.703125 L 4.921875 -3.828125 L 2.03125 -3.828125 L 2.03125 0 Z M 0.921875 0 "/></g></g></g><g fill="#4d2b08" fill-opacity="1"><g transform="translate(178.696516, 273.252932)"><g><path d="M 5.40625 -8.484375 L 5.40625 -7.59375 L 2.03125 -7.59375 L 2.03125 -4.703125 L 5.046875 -4.703125 L 5.046875 -3.84375 L 2.03125 -3.84375 L 2.03125 -0.875 L 5.40625 -0.875 L 5.40625 0 L 0.921875 0 L 0.921875 -8.484375 Z M 5.40625 -8.484375 "/></g></g></g><g fill="#4d2b08" fill-opacity="1"><g transform="translate(191.513565, 273.252932)"><g/></g></g><g fill="#4d2b08" fill-opacity="1"><g transform="translate(201.824966, 273.252932)"><g><path d="M 1.828125 -6.21875 C 1.828125 -5.90625 1.910156 -5.644531 2.078125 -5.4375 C 2.253906 -5.238281 2.472656 -5.085938 2.734375 -4.984375 C 3.003906 -4.890625 3.304688 -4.804688 3.640625 -4.734375 C 3.972656 -4.660156 4.300781 -4.578125 4.625 -4.484375 C 4.957031 -4.390625 5.257812 -4.269531 5.53125 -4.125 C 5.800781 -3.976562 6.019531 -3.753906 6.1875 -3.453125 C 6.363281 -3.160156 6.453125 -2.800781 6.453125 -2.375 C 6.453125 -1.707031 6.195312 -1.128906 5.6875 -0.640625 C 5.1875 -0.160156 4.503906 0.078125 3.640625 0.078125 C 2.773438 0.078125 2.070312 -0.113281 1.53125 -0.5 C 1 -0.894531 0.734375 -1.429688 0.734375 -2.109375 L 1.921875 -2.109375 C 1.953125 -1.734375 2.101562 -1.425781 2.375 -1.1875 C 2.65625 -0.945312 3.0625 -0.828125 3.59375 -0.828125 C 4.132812 -0.828125 4.5625 -0.960938 4.875 -1.234375 C 5.195312 -1.515625 5.359375 -1.84375 5.359375 -2.21875 C 5.359375 -2.59375 5.269531 -2.878906 5.09375 -3.078125 C 4.925781 -3.273438 4.707031 -3.421875 4.4375 -3.515625 C 4.164062 -3.617188 3.863281 -3.703125 3.53125 -3.765625 C 3.207031 -3.835938 2.878906 -3.921875 2.546875 -4.015625 C 2.222656 -4.117188 1.925781 -4.242188 1.65625 -4.390625 C 1.382812 -4.546875 1.160156 -4.769531 0.984375 -5.0625 C 0.816406 -5.363281 0.734375 -5.734375 0.734375 -6.171875 C 0.734375 -6.890625 0.988281 -7.46875 1.5 -7.90625 C 2.007812 -8.34375 2.671875 -8.5625 3.484375 -8.5625 C 4.304688 -8.5625 4.957031 -8.367188 5.4375 -7.984375 C 5.925781 -7.609375 6.207031 -7.085938 6.28125 -6.421875 L 5.046875 -6.421875 C 5.015625 -6.753906 4.859375 -7.039062 4.578125 -7.28125 C 4.296875 -7.519531 3.914062 -7.640625 3.4375 -7.640625 C 2.96875 -7.640625 2.582031 -7.515625 2.28125 -7.265625 C 1.976562 -7.023438 1.828125 -6.675781 1.828125 -6.21875 Z M 1.828125 -6.21875 "/></g></g></g><g fill="#4d2b08" fill-opacity="1"><g transform="translate(215.644267, 273.252932)"><g><path d="M 6.296875 -8.484375 L 7.421875 -8.484375 L 7.421875 0 L 6.296875 0 L 6.296875 -3.828125 L 2.03125 -3.828125 L 2.03125 0 L 0.921875 0 L 0.921875 -8.484375 L 2.03125 -8.484375 L 2.03125 -4.703125 L 6.296875 -4.703125 Z M 6.296875 -8.484375 "/></g></g></g><g fill="#4d2b08" fill-opacity="1"><g transform="translate(230.624719, 273.252932)"><g><path d="M 7.0625 -1.8125 C 7.664062 -2.425781 7.96875 -3.234375 7.96875 -4.234375 C 7.96875 -5.242188 7.664062 -6.050781 7.0625 -6.65625 C 6.46875 -7.269531 5.707031 -7.578125 4.78125 -7.578125 C 3.863281 -7.578125 3.101562 -7.269531 2.5 -6.65625 C 1.90625 -6.050781 1.609375 -5.242188 1.609375 -4.234375 C 1.609375 -3.234375 1.90625 -2.425781 2.5 -1.8125 C 3.101562 -1.207031 3.863281 -0.90625 4.78125 -0.90625 C 5.707031 -0.90625 6.46875 -1.207031 7.0625 -1.8125 Z M 4.796875 0.078125 C 3.578125 0.078125 2.550781 -0.328125 1.71875 -1.140625 C 0.894531 -1.960938 0.484375 -3 0.484375 -4.25 C 0.484375 -5.5 0.894531 -6.53125 1.71875 -7.34375 C 2.550781 -8.15625 3.578125 -8.5625 4.796875 -8.5625 C 6.015625 -8.5625 7.035156 -8.15625 7.859375 -7.34375 C 8.691406 -6.53125 9.109375 -5.492188 9.109375 -4.234375 C 9.109375 -2.984375 8.691406 -1.953125 7.859375 -1.140625 C 7.035156 -0.328125 6.015625 0.078125 4.796875 0.078125 Z M 4.796875 0.078125 "/></g></g></g><g fill="#4d2b08" fill-opacity="1"><g transform="translate(246.827434, 273.252932)"><g><path d="M 3.671875 -8.484375 C 4.628906 -8.484375 5.359375 -8.25 5.859375 -7.78125 C 6.359375 -7.3125 6.609375 -6.710938 6.609375 -5.984375 C 6.609375 -5.265625 6.363281 -4.671875 5.875 -4.203125 C 5.394531 -3.734375 4.660156 -3.5 3.671875 -3.5 L 2.03125 -3.5 L 2.03125 0 L 0.921875 0 L 0.921875 -8.484375 Z M 2.03125 -4.375 L 3.671875 -4.375 C 4.285156 -4.375 4.738281 -4.515625 5.03125 -4.796875 C 5.332031 -5.078125 5.484375 -5.472656 5.484375 -5.984375 C 5.484375 -7.046875 4.878906 -7.578125 3.671875 -7.578125 L 2.03125 -7.578125 Z M 2.03125 -4.375 "/></g></g></g></svg>